# Blender 4.1.1
# www.blender.org
o Ring
v -0.000000 0.000000 -0.500000
v -0.097545 0.000000 -0.490393
v -0.191342 0.000000 -0.461940
v -0.277785 0.000000 -0.415735
v -0.353553 0.000000 -0.353553
v -0.415735 0.000000 -0.277785
v -0.461940 0.000000 -0.191342
v -0.490393 0.000000 -0.097545
v -0.500000 0.000000 -0.000000
v -0.490393 0.000000 0.097545
v -0.461940 0.000000 0.191342
v -0.415735 0.000000 0.277785
v -0.353553 0.000000 0.353553
v -0.277785 0.000000 0.415735
v -0.191342 0.000000 0.461940
v -0.097545 0.000000 0.490393
v -0.000000 0.000000 0.500000
v 0.097545 0.000000 0.490393
v 0.191342 0.000000 0.461940
v 0.277785 0.000000 0.415735
v 0.353553 0.000000 0.353553
v 0.415735 0.000000 0.277785
v 0.461940 0.000000 0.191342
v 0.490393 0.000000 0.097545
v 0.500000 0.000000 -0.000000
v 0.490393 0.000000 -0.097545
v 0.461940 0.000000 -0.191342
v 0.415735 0.000000 -0.277785
v 0.353553 0.000000 -0.353553
v 0.277785 0.000000 -0.415735
v 0.191342 0.000000 -0.461940
v 0.097545 0.000000 -0.490393
v -0.000000 0.000000 -0.550000
v -0.107300 0.000000 -0.539432
v -0.210476 0.000000 -0.508134
v -0.305564 0.000000 -0.457308
v -0.388909 0.000000 -0.388909
v -0.457308 0.000000 -0.305564
v -0.508134 0.000000 -0.210476
v -0.539432 0.000000 -0.107300
v -0.550000 0.000000 -0.000000
v -0.539432 0.000000 0.107300
v -0.508134 0.000000 0.210476
v -0.457308 0.000000 0.305564
v -0.388909 0.000000 0.388909
v -0.305564 0.000000 0.457308
v -0.210476 0.000000 0.508134
v -0.107300 0.000000 0.539432
v -0.000000 0.000000 0.550000
v 0.107300 0.000000 0.539432
v 0.210476 0.000000 0.508134
v 0.305564 0.000000 0.457308
v 0.388909 0.000000 0.388909
v 0.457308 0.000000 0.305564
v 0.508134 0.000000 0.210476
v 0.539432 0.000000 0.107300
v 0.550000 0.000000 -0.000000
v 0.539432 0.000000 -0.107300
v 0.508134 0.000000 -0.210476
v 0.457308 0.000000 -0.305564
v 0.388909 0.000000 -0.388909
v 0.305564 0.000000 -0.457308
v 0.210476 0.000000 -0.508134
v 0.107300 0.000000 -0.539432
v -0.000000 0.020000 -0.500000
v -0.097545 0.020000 -0.490393
v -0.191342 0.020000 -0.461940
v -0.277785 0.020000 -0.415735
v -0.353553 0.020000 -0.353553
v -0.415735 0.020000 -0.277785
v -0.461940 0.020000 -0.191342
v -0.490393 0.020000 -0.097545
v -0.500000 0.020000 -0.000000
v -0.490393 0.020000 0.097545
v -0.461940 0.020000 0.191342
v -0.415735 0.020000 0.277785
v -0.353553 0.020000 0.353553
v -0.277785 0.020000 0.415735
v -0.191342 0.020000 0.461940
v -0.097545 0.020000 0.490393
v -0.000000 0.020000 0.500000
v 0.097545 0.020000 0.490393
v 0.191342 0.020000 0.461940
v 0.277785 0.020000 0.415735
v 0.353553 0.020000 0.353553
v 0.415735 0.020000 0.277785
v 0.461940 0.020000 0.191342
v 0.490393 0.020000 0.097545
v 0.500000 0.020000 -0.000000
v 0.490393 0.020000 -0.097545
v 0.461940 0.020000 -0.191342
v 0.415735 0.020000 -0.277785
v 0.353553 0.020000 -0.353553
v 0.277785 0.020000 -0.415735
v 0.191342 0.020000 -0.461940
v 0.097545 0.020000 -0.490393
v -0.000000 0.020000 -0.550000
v -0.107300 0.020000 -0.539432
v -0.210476 0.020000 -0.508134
v -0.305564 0.020000 -0.457308
v -0.388909 0.020000 -0.388909
v -0.457308 0.020000 -0.305564
v -0.508134 0.020000 -0.210476
v -0.539432 0.020000 -0.107300
v -0.550000 0.020000 -0.000000
v -0.539432 0.020000 0.107300
v -0.508134 0.020000 0.210476
v -0.457308 0.020000 0.305564
v -0.388909 0.020000 0.388909
v -0.305564 0.020000 0.457308
v -0.210476 0.020000 0.508134
v -0.107300 0.020000 0.539432
v -0.000000 0.020000 0.550000
v 0.107300 0.020000 0.539432
v 0.210476 0.020000 0.508134
v 0.305564 0.020000 0.457308
v 0.388909 0.020000 0.388909
v 0.457308 0.020000 0.305564
v 0.508134 0.020000 0.210476
v 0.539432 0.020000 0.107300
v 0.550000 0.020000 -0.000000
v 0.539432 0.020000 -0.107300
v 0.508134 0.020000 -0.210476
v 0.457308 0.020000 -0.305564
v 0.388909 0.020000 -0.388909
v 0.305564 0.020000 -0.457308
v 0.210476 0.020000 -0.508134
v 0.107300 0.020000 -0.539432
vn -0.0000 -1.0000 -0.0000
vn -0.0000 1.0000 -0.0000
vn 0.7071 -0.0000 -0.7071
vn 0.5556 -0.0000 -0.8314
vn -0.3827 -0.0000 -0.9239
vn -0.5555 -0.0000 -0.8315
vn 0.9808 -0.0000 -0.1950
vn 1.0000 -0.0000 -0.0000
vn 0.5555 -0.0000 -0.8315
vn 0.3827 -0.0000 -0.9239
vn -0.5556 -0.0000 -0.8314
vn -0.7071 -0.0000 -0.7071
vn 0.9239 -0.0000 -0.3826
vn 0.9808 -0.0000 -0.1951
vn 0.3826 -0.0000 -0.9239
vn 0.1951 -0.0000 -0.9808
vn -0.8314 -0.0000 -0.5556
vn 0.8315 -0.0000 -0.5555
vn 0.9239 -0.0000 -0.3827
vn 0.1950 -0.0000 -0.9808
vn -0.0000 -0.0000 -1.0000
vn -0.8315 -0.0000 -0.5555
vn -0.9239 -0.0000 -0.3827
vn 0.8314 -0.0000 -0.5556
vn -0.9239 -0.0000 -0.3826
vn -0.9808 -0.0000 -0.1951
vn -0.9808 -0.0000 -0.1950
vn -1.0000 -0.0000 -0.0000
vn -0.9808 -0.0000 0.1950
vn -0.9808 -0.0000 0.1951
vn -0.9239 -0.0000 0.3826
vn -0.9239 -0.0000 0.3827
vn -0.8315 -0.0000 0.5555
vn -0.1950 -0.0000 -0.9808
vn -0.8314 -0.0000 0.5556
vn -0.7071 -0.0000 0.7071
vn -0.3826 -0.0000 -0.9239
vn -0.1951 -0.0000 -0.9808
vn -0.5556 -0.0000 0.8314
vn -0.5555 -0.0000 0.8315
vn -0.3827 -0.0000 0.9239
vn -0.3826 -0.0000 0.9239
vn -0.1951 -0.0000 0.9808
vn -0.1950 -0.0000 0.9808
vn -0.0000 -0.0000 1.0000
vn 0.1950 -0.0000 0.9808
vn 0.1951 -0.0000 0.9808
vn 0.3826 -0.0000 0.9239
vn 0.3827 -0.0000 0.9239
vn 0.5555 -0.0000 0.8315
vn 0.5556 -0.0000 0.8314
vn 0.7071 -0.0000 0.7071
vn 0.8314 -0.0000 0.5556
vn 0.8315 -0.0000 0.5555
vn 0.9239 -0.0000 0.3827
vn 0.9239 -0.0000 0.3826
vn 0.9808 -0.0000 0.1951
vn 0.9808 -0.0000 0.1950
vt 0.000000 0.000000
s 0
f 7/1/1 39/1/1 38/1/1 6/1/1
f 21/1/1 53/1/1 52/1/1 20/1/1
f 8/1/1 40/1/1 39/1/1 7/1/1
f 22/1/1 54/1/1 53/1/1 21/1/1
f 9/1/1 41/1/1 40/1/1 8/1/1
f 23/1/1 55/1/1 54/1/1 22/1/1
f 10/1/1 42/1/1 41/1/1 9/1/1
f 24/1/1 56/1/1 55/1/1 23/1/1
f 11/1/1 43/1/1 42/1/1 10/1/1
f 25/1/1 57/1/1 56/1/1 24/1/1
f 12/1/1 44/1/1 43/1/1 11/1/1
f 26/1/1 58/1/1 57/1/1 25/1/1
f 13/1/1 45/1/1 44/1/1 12/1/1
f 27/1/1 59/1/1 58/1/1 26/1/1
f 14/1/1 46/1/1 45/1/1 13/1/1
f 28/1/1 60/1/1 59/1/1 27/1/1
f 15/1/1 47/1/1 46/1/1 14/1/1
f 2/1/1 34/1/1 33/1/1 1/1/1
f 29/1/1 61/1/1 60/1/1 28/1/1
f 16/1/1 48/1/1 47/1/1 15/1/1
f 3/1/1 35/1/1 34/1/1 2/1/1
f 30/1/1 62/1/1 61/1/1 29/1/1
f 17/1/1 49/1/1 48/1/1 16/1/1
f 4/1/1 36/1/1 35/1/1 3/1/1
f 31/1/1 63/1/1 62/1/1 30/1/1
f 18/1/1 50/1/1 49/1/1 17/1/1
f 5/1/1 37/1/1 36/1/1 4/1/1
f 32/1/1 64/1/1 63/1/1 31/1/1
f 19/1/1 51/1/1 50/1/1 18/1/1
f 6/1/1 38/1/1 37/1/1 5/1/1
f 1/1/1 33/1/1 64/1/1 32/1/1
f 20/1/1 52/1/1 51/1/1 19/1/1
f 71/1/2 70/1/2 102/1/2 103/1/2
f 85/1/2 84/1/2 116/1/2 117/1/2
f 72/1/2 71/1/2 103/1/2 104/1/2
f 86/1/2 85/1/2 117/1/2 118/1/2
f 73/1/2 72/1/2 104/1/2 105/1/2
f 87/1/2 86/1/2 118/1/2 119/1/2
f 74/1/2 73/1/2 105/1/2 106/1/2
f 88/1/2 87/1/2 119/1/2 120/1/2
f 75/1/2 74/1/2 106/1/2 107/1/2
f 89/1/2 88/1/2 120/1/2 121/1/2
f 76/1/2 75/1/2 107/1/2 108/1/2
f 90/1/2 89/1/2 121/1/2 122/1/2
f 77/1/2 76/1/2 108/1/2 109/1/2
f 91/1/2 90/1/2 122/1/2 123/1/2
f 78/1/2 77/1/2 109/1/2 110/1/2
f 92/1/2 91/1/2 123/1/2 124/1/2
f 79/1/2 78/1/2 110/1/2 111/1/2
f 66/1/2 65/1/2 97/1/2 98/1/2
f 93/1/2 92/1/2 124/1/2 125/1/2
f 80/1/2 79/1/2 111/1/2 112/1/2
f 67/1/2 66/1/2 98/1/2 99/1/2
f 94/1/2 93/1/2 125/1/2 126/1/2
f 81/1/2 80/1/2 112/1/2 113/1/2
f 68/1/2 67/1/2 99/1/2 100/1/2
f 95/1/2 94/1/2 126/1/2 127/1/2
f 82/1/2 81/1/2 113/1/2 114/1/2
f 69/1/2 68/1/2 100/1/2 101/1/2
f 96/1/2 95/1/2 127/1/2 128/1/2
f 83/1/2 82/1/2 114/1/2 115/1/2
f 70/1/2 69/1/2 101/1/2 102/1/2
f 65/1/2 96/1/2 128/1/2 97/1/2
f 84/1/2 83/1/2 115/1/2 116/1/2
f 61/1/3 62/1/4 126/1/4 125/1/3
f 35/1/5 36/1/6 100/1/6 99/1/5
f 10/1/7 9/1/8 73/1/8 74/1/7
f 62/1/9 63/1/10 127/1/10 126/1/9
f 36/1/11 37/1/12 101/1/12 100/1/11
f 11/1/13 10/1/14 74/1/14 75/1/13
f 63/1/15 64/1/16 128/1/16 127/1/15
f 37/1/12 38/1/17 102/1/17 101/1/12
f 12/1/18 11/1/19 75/1/19 76/1/18
f 64/1/20 33/1/21 97/1/21 128/1/20
f 38/1/22 39/1/23 103/1/23 102/1/22
f 13/1/3 12/1/24 76/1/24 77/1/3
f 39/1/25 40/1/26 104/1/26 103/1/25
f 14/1/4 13/1/3 77/1/3 78/1/4
f 40/1/27 41/1/28 105/1/28 104/1/27
f 15/1/10 14/1/9 78/1/9 79/1/10
f 41/1/28 42/1/29 106/1/29 105/1/28
f 16/1/16 15/1/15 79/1/15 80/1/16
f 42/1/30 43/1/31 107/1/31 106/1/30
f 17/1/21 16/1/20 80/1/20 81/1/21
f 43/1/32 44/1/33 108/1/33 107/1/32
f 18/1/34 17/1/21 81/1/21 82/1/34
f 44/1/35 45/1/36 109/1/36 108/1/35
f 19/1/37 18/1/38 82/1/38 83/1/37
f 45/1/36 46/1/39 110/1/39 109/1/36
f 20/1/6 19/1/5 83/1/5 84/1/6
f 46/1/40 47/1/41 111/1/41 110/1/40
f 21/1/12 20/1/11 84/1/11 85/1/12
f 47/1/42 48/1/43 112/1/43 111/1/42
f 22/1/17 21/1/12 85/1/12 86/1/17
f 48/1/44 49/1/45 113/1/45 112/1/44
f 23/1/23 22/1/22 86/1/22 87/1/23
f 49/1/45 50/1/46 114/1/46 113/1/45
f 24/1/26 23/1/25 87/1/25 88/1/26
f 50/1/47 51/1/48 115/1/48 114/1/47
f 25/1/28 24/1/27 88/1/27 89/1/28
f 51/1/49 52/1/50 116/1/50 115/1/49
f 26/1/29 25/1/28 89/1/28 90/1/29
f 52/1/51 53/1/52 117/1/52 116/1/51
f 27/1/31 26/1/30 90/1/30 91/1/31
f 53/1/52 54/1/53 118/1/53 117/1/52
f 28/1/33 27/1/32 91/1/32 92/1/33
f 2/1/46 1/1/45 65/1/45 66/1/46
f 54/1/54 55/1/55 119/1/55 118/1/54
f 29/1/36 28/1/35 92/1/35 93/1/36
f 3/1/48 2/1/47 66/1/47 67/1/48
f 55/1/56 56/1/57 120/1/57 119/1/56
f 30/1/39 29/1/36 93/1/36 94/1/39
f 4/1/50 3/1/49 67/1/49 68/1/50
f 56/1/58 57/1/8 121/1/8 120/1/58
f 31/1/41 30/1/40 94/1/40 95/1/41
f 5/1/52 4/1/51 68/1/51 69/1/52
f 57/1/8 58/1/7 122/1/7 121/1/8
f 32/1/43 31/1/42 95/1/42 96/1/43
f 6/1/53 5/1/52 69/1/52 70/1/53
f 58/1/14 59/1/13 123/1/13 122/1/14
f 1/1/45 32/1/44 96/1/44 65/1/45
f 7/1/55 6/1/54 70/1/54 71/1/55
f 59/1/19 60/1/18 124/1/18 123/1/19
f 33/1/21 34/1/34 98/1/34 97/1/21
f 8/1/57 7/1/56 71/1/56 72/1/57
f 60/1/24 61/1/3 125/1/3 124/1/24
f 34/1/38 35/1/37 99/1/37 98/1/38
f 9/1/8 8/1/58 72/1/58 73/1/8
